<?xml version="1.0" encoding="UTF-8"?>
<svg version="1.1" xmlns="http://www.w3.org/2000/svg" width="60" height="60">
<path d="M0 0 C19.8 0 39.6 0 60 0 C60 19.8 60 39.6 60 60 C40.2 60 20.4 60 0 60 C0 40.2 0 20.4 0 0 Z " fill="#FDFEFE" transform="translate(0,0)"/>
<path d="M0 0 C5.39458094 2.6925165 8.59019343 6.64600714 11.625 11.75 C13.16401759 18.36777565 13.06535936 24.63151587 9.6484375 30.6171875 C5.80544677 35.61951621 0.41513534 39.12576908 -5.75 40.4375 C-9.28194711 40.68535594 -11.83214861 40.860886 -15.0703125 39.3671875 C-18.45184438 38.19400297 -20.57462017 38.6225897 -24.0625 39.3125 C-25.13113281 39.51617187 -26.19976562 39.71984375 -27.30078125 39.9296875 C-28.51314453 40.18105469 -28.51314453 40.18105469 -29.75 40.4375 C-29.58242188 39.61765625 -29.41484375 38.7978125 -29.2421875 37.953125 C-29.03851563 36.87546875 -28.83484375 35.7978125 -28.625 34.6875 C-28.41617187 33.62015625 -28.20734375 32.5528125 -27.9921875 31.453125 C-27.7290324 28.17641952 -28.1825549 27.20892466 -29.75 24.4375 C-30.7343436 17.7073368 -29.80681418 11.94909011 -25.75 6.4375 C-18.33423472 -1.30517837 -10.34679102 -4.07919172 0 0 Z " fill="#F8FDFA" transform="translate(38.75,10.5625)"/>
<path d="M0 0 C5.39458094 2.6925165 8.59019343 6.64600714 11.625 11.75 C13.16401759 18.36777565 13.06535936 24.63151587 9.6484375 30.6171875 C5.80544677 35.61951621 0.41513534 39.12576908 -5.75 40.4375 C-9.28194711 40.68535594 -11.83214861 40.860886 -15.0703125 39.3671875 C-18.45184438 38.19400297 -20.57462017 38.6225897 -24.0625 39.3125 C-25.13113281 39.51617187 -26.19976562 39.71984375 -27.30078125 39.9296875 C-28.51314453 40.18105469 -28.51314453 40.18105469 -29.75 40.4375 C-29.58242188 39.61765625 -29.41484375 38.7978125 -29.2421875 37.953125 C-29.03851563 36.87546875 -28.83484375 35.7978125 -28.625 34.6875 C-28.41617187 33.62015625 -28.20734375 32.5528125 -27.9921875 31.453125 C-27.7290324 28.17641952 -28.1825549 27.20892466 -29.75 24.4375 C-30.7343436 17.7073368 -29.80681418 11.94909011 -25.75 6.4375 C-18.33423472 -1.30517837 -10.34679102 -4.07919172 0 0 Z M-23.0625 9.0625 C-26.39899678 13.75831029 -26.12239837 17.80074293 -25.75 23.4375 C-25.09853151 25.77512223 -24.43473395 28.10940457 -23.75 30.4375 C-24.125 33.375 -24.125 33.375 -24.75 35.4375 C-24.12351562 35.42589844 -23.49703125 35.41429687 -22.8515625 35.40234375 C-22.03429687 35.39332031 -21.21703125 35.38429687 -20.375 35.375 C-19.15683594 35.35759766 -19.15683594 35.35759766 -17.9140625 35.33984375 C-15.75 35.4375 -15.75 35.4375 -13.75 36.4375 C-7.25251588 37.25979571 -2.12901035 36.21010907 3.25 32.4375 C8.11556249 27.32242148 8.60330453 22.9912288 8.53125 16.1640625 C8.0046282 11.05875675 5.35837353 8.43773953 1.6875 5.125 C-6.78505109 -0.74061229 -16.63564403 1.76714998 -23.0625 9.0625 Z " fill="#37D673" transform="translate(38.75,10.5625)"/>
<path d="M0 0 C0.99 0.33 1.98 0.66 3 1 C3.144375 1.9075 3.28875 2.815 3.4375 3.75 C3.623125 4.8225 3.80875 5.895 4 7 C4.103125 7.721875 4.20625 8.44375 4.3125 9.1875 C5.33618752 11.88631256 6.42339465 12.71169733 9 14 C12.59679066 13.67673447 12.59679066 13.67673447 16 13 C16.66 13.33 17.32 13.66 18 14 C17.125 18.875 17.125 18.875 16 20 C8.95381495 20.12582473 5.82776815 17.67598671 0.78515625 12.91015625 C-1.75022076 10.19724737 -1.98330903 9.31156469 -2.1875 5.5 C-2 2 -2 2 0 0 Z " fill="#2ED46C" transform="translate(22,20)"/>
</svg>
